<svg width="117.000000" height="113.000000" viewBox="0 0 117 113" fill="none" xmlns="http://www.w3.org/2000/svg" xmlns:xlink="http://www.w3.org/1999/xlink">
	<desc>
			Created with Pixso.
	</desc>
	<defs/>
	<path id="Vector" d="M50.5 101.94L48.47 113L44.35 112.25C43.54 112.1 42.93 111.85 42.42 111.5C41.96 111.15 41.61 110.75 41.46 110.26C41.25 109.76 41.25 109.26 41.36 108.71C41.46 108.26 41.61 107.87 41.81 107.62C42.02 107.37 42.32 107.12 42.63 106.97C42.93 106.82 43.29 106.77 43.64 106.72L43.64 106.62C43.29 106.52 42.93 106.37 42.63 106.07C42.32 105.77 42.07 105.43 41.91 104.98C41.76 104.53 41.71 104.03 41.81 103.48C41.91 102.94 42.17 102.44 42.47 102.04C42.83 101.64 43.29 101.34 43.9 101.19C44.51 101.04 45.27 101.04 46.13 101.19L50.5 101.94ZM47.66 107.92L45.37 107.52C44.96 107.47 44.61 107.47 44.3 107.57C44 107.67 43.69 107.82 43.44 108.07C43.18 108.31 43.08 108.56 42.98 108.96C42.88 109.41 42.98 109.81 43.29 110.21C43.59 110.61 44.05 110.8 44.71 110.95L47.05 111.35L47.66 107.92ZM48.52 103.04L46.08 102.59C45.27 102.44 44.66 102.49 44.25 102.74C43.84 102.99 43.59 103.33 43.49 103.78C43.44 104.13 43.44 104.48 43.59 104.78C43.69 105.08 43.95 105.38 44.25 105.62C44.56 105.87 44.91 106.02 45.37 106.07L47.91 106.52L48.52 103.04Z" fill="#F58A07" fill-opacity="1.000000" fill-rule="nonzero"/>
	<path id="Vector" d="M36.73 98.15C37.49 98.45 38.1 98.9 38.51 99.5C38.92 100.05 39.17 100.69 39.22 101.44C39.27 102.19 39.12 102.94 38.76 103.73C38.41 104.53 37.95 105.18 37.39 105.62C36.83 106.12 36.17 106.42 35.51 106.52C34.8 106.62 34.09 106.52 33.38 106.22C32.92 106.02 32.51 105.77 32.16 105.48C31.8 105.18 31.55 104.78 31.35 104.33C31.14 103.88 31.04 103.38 31.09 102.79C31.09 102.19 31.29 101.59 31.6 100.89L31.85 100.35L38.15 102.94L37.65 104.08L32.87 102.09C32.72 102.49 32.62 102.89 32.67 103.23C32.72 103.63 32.82 103.93 33.02 104.23C33.23 104.53 33.53 104.78 33.94 104.93C34.39 105.13 34.8 105.18 35.21 105.08C35.61 105.03 35.97 104.83 36.27 104.58C36.58 104.33 36.83 103.98 36.99 103.63L37.39 102.74C37.59 102.24 37.7 101.74 37.7 101.29C37.65 100.84 37.54 100.45 37.29 100.15C37.04 99.85 36.68 99.55 36.22 99.35C35.92 99.25 35.66 99.15 35.36 99.15C35.11 99.15 34.8 99.15 34.6 99.25C34.39 99.35 34.14 99.5 33.94 99.7L32.56 98.85C32.87 98.5 33.23 98.2 33.68 98C34.14 97.81 34.6 97.71 35.11 97.76C35.61 97.81 36.17 97.91 36.73 98.15Z" fill="#F58A07" fill-opacity="1.000000" fill-rule="nonzero"/>
	<path id="Vector" d="M22.25 97.36L23.67 98C23.62 98.2 23.57 98.4 23.62 98.6C23.62 98.8 23.72 99.05 23.83 99.25C23.98 99.45 24.18 99.7 24.43 99.85C24.84 100.1 25.2 100.25 25.6 100.25C25.96 100.25 26.26 100.1 26.47 99.85C26.62 99.6 26.67 99.35 26.62 99.1C26.57 98.85 26.37 98.55 26.01 98.2L25.04 97.21C24.49 96.61 24.18 96.06 24.08 95.56C23.98 95.07 24.08 94.52 24.43 94.02C24.74 93.62 25.1 93.32 25.6 93.17C26.06 93.02 26.57 92.97 27.18 93.12C27.74 93.22 28.3 93.47 28.91 93.87C29.72 94.42 30.23 95.02 30.48 95.66C30.74 96.31 30.74 97.01 30.38 97.71L28.91 97.01C29.06 96.61 29.06 96.26 28.96 95.91C28.8 95.56 28.55 95.27 28.14 94.97C27.69 94.67 27.28 94.52 26.87 94.52C26.47 94.52 26.16 94.67 26.01 94.92C25.86 95.12 25.81 95.37 25.86 95.61C25.91 95.86 26.11 96.16 26.37 96.46L27.38 97.51C27.94 98.1 28.25 98.65 28.35 99.2C28.45 99.75 28.3 100.25 27.94 100.74C27.64 101.14 27.28 101.44 26.82 101.59C26.37 101.74 25.86 101.74 25.35 101.64C24.84 101.54 24.28 101.29 23.77 100.94C23.01 100.45 22.5 99.85 22.3 99.25C22 98.65 22 98 22.25 97.36Z" fill="#F58A07" fill-opacity="1.000000" fill-rule="nonzero"/>
	<path id="Vector" d="M16.15 97.51L14.93 96.36L20.57 90.63C20.78 90.38 20.93 90.19 20.98 90.04C21.03 89.84 21.03 89.69 20.93 89.54C20.88 89.39 20.78 89.24 20.62 89.14C20.52 89.04 20.42 88.99 20.37 88.94C20.32 88.89 20.22 88.84 20.17 88.79L20.93 87.6C21.03 87.65 21.13 87.7 21.28 87.79C21.44 87.89 21.64 88.04 21.79 88.19C22.1 88.49 22.35 88.84 22.5 89.19C22.66 89.54 22.71 89.94 22.66 90.33C22.61 90.73 22.35 91.13 22 91.48L16.15 97.51ZM15.09 93.72L16 92.78L19.35 95.96L18.44 96.91L15.09 93.72Z" fill="#F58A07" fill-opacity="1.000000" fill-rule="nonzero"/>
	<path id="Vector" d="M15.34 79.83C15.59 80.27 15.75 80.77 15.8 81.22C15.85 81.72 15.75 82.12 15.54 82.52C15.34 82.91 14.98 83.26 14.48 83.56C14.07 83.81 13.66 83.91 13.31 83.91C12.95 83.91 12.6 83.81 12.29 83.61C11.99 83.41 11.68 83.21 11.43 82.91C11.17 82.62 10.87 82.32 10.67 82.02C10.36 81.62 10.11 81.27 9.9 81.02C9.7 80.77 9.55 80.62 9.4 80.52C9.24 80.42 9.09 80.47 8.89 80.57L8.84 80.57C8.43 80.82 8.18 81.12 8.07 81.47C7.97 81.82 8.07 82.27 8.33 82.72C8.63 83.21 8.94 83.51 9.29 83.66C9.65 83.81 10 83.86 10.36 83.81L10.82 85.3C10.26 85.4 9.75 85.35 9.29 85.21C8.84 85.06 8.43 84.81 8.07 84.51C7.72 84.16 7.41 83.81 7.16 83.36C7.01 83.06 6.85 82.76 6.7 82.37C6.6 82.02 6.55 81.62 6.55 81.22C6.55 80.82 6.7 80.42 6.91 80.08C7.11 79.73 7.52 79.38 8.07 79.03L13 76.24L13.82 77.64L12.8 78.23L12.85 78.28C13.1 78.28 13.36 78.28 13.66 78.38C13.97 78.48 14.22 78.63 14.53 78.83C14.83 79.13 15.09 79.43 15.34 79.83ZM13.97 80.18C13.71 79.78 13.46 79.48 13.16 79.28C12.85 79.08 12.49 78.98 12.14 78.98C11.78 78.98 11.48 79.08 11.17 79.23L10.21 79.78C10.31 79.78 10.41 79.88 10.51 79.98C10.61 80.08 10.77 80.23 10.92 80.42C11.07 80.57 11.17 80.77 11.33 80.92C11.43 81.07 11.58 81.22 11.63 81.32C11.83 81.57 12.04 81.82 12.24 81.97C12.44 82.17 12.7 82.27 12.9 82.32C13.16 82.37 13.41 82.32 13.66 82.17C14.02 81.97 14.22 81.67 14.22 81.32C14.32 80.97 14.22 80.57 13.97 80.18Z" fill="#F58A07" fill-opacity="1.000000" fill-rule="nonzero"/>
	<path id="Vector" d="M14.07 69.52C14.27 70.17 14.37 70.71 14.32 71.26C14.32 71.76 14.22 72.21 14.02 72.61C13.82 73 13.61 73.3 13.31 73.55L12.29 72.41C12.39 72.26 12.55 72.11 12.65 71.86C12.75 71.66 12.85 71.36 12.9 71.06C12.95 70.76 12.9 70.36 12.75 69.97C12.55 69.37 12.24 68.92 11.83 68.62C11.43 68.32 10.87 68.27 10.26 68.47L8.63 68.97L8.68 69.07C8.89 69.12 9.14 69.17 9.4 69.27C9.65 69.37 9.9 69.57 10.21 69.82C10.51 70.07 10.67 70.46 10.82 70.96C11.02 71.61 11.07 72.21 10.92 72.8C10.77 73.4 10.46 73.95 9.95 74.45C9.45 74.95 8.79 75.29 7.92 75.59C7.06 75.84 6.25 75.94 5.53 75.84C4.82 75.74 4.21 75.49 3.7 75.1C3.2 74.7 2.84 74.15 2.64 73.5C2.49 73 2.43 72.56 2.49 72.21C2.54 71.86 2.69 71.56 2.84 71.31C2.99 71.06 3.15 70.86 3.3 70.71L3.25 70.61L1.93 71.01L1.42 69.47L9.8 66.88C10.51 66.68 11.12 66.63 11.68 66.83C12.24 67.03 12.7 67.33 13.1 67.82C13.51 68.32 13.87 68.82 14.07 69.52ZM9.4 70.96C9.24 70.51 9.04 70.17 8.68 69.92C8.33 69.67 7.97 69.52 7.52 69.52C7.06 69.47 6.55 69.57 5.99 69.72C5.43 69.87 4.97 70.12 4.62 70.41C4.26 70.71 4.01 71.06 3.86 71.41C3.7 71.81 3.7 72.21 3.86 72.66C4.01 73.1 4.26 73.5 4.62 73.7C4.97 73.95 5.38 74.05 5.84 74.1C6.3 74.15 6.8 74.05 7.31 73.9C7.87 73.75 8.28 73.5 8.63 73.2C8.99 72.9 9.24 72.56 9.34 72.21C9.55 71.86 9.55 71.46 9.4 70.96Z" fill="#F58A07" fill-opacity="1.000000" fill-rule="nonzero"/>
	<path id="Vector" d="M8.99 60.6C9.09 61.45 8.94 62.15 8.63 62.79C8.33 63.44 7.87 63.94 7.21 64.29C6.6 64.69 5.84 64.89 4.92 64.99C4.06 65.09 3.25 64.99 2.59 64.69C1.87 64.44 1.32 64.04 0.91 63.49C0.5 62.94 0.25 62.3 0.15 61.5C0.1 61 0.15 60.55 0.25 60.11C0.35 59.66 0.6 59.21 0.91 58.86C1.21 58.46 1.62 58.16 2.18 57.91C2.69 57.67 3.35 57.52 4.11 57.42L4.72 57.37L5.33 64.04L4.06 64.14L3.6 59.06C3.14 59.11 2.79 59.21 2.48 59.41C2.18 59.61 1.93 59.91 1.77 60.21C1.62 60.5 1.52 60.9 1.57 61.35C1.62 61.8 1.77 62.2 2.03 62.5C2.28 62.79 2.59 63.04 2.99 63.19C3.4 63.34 3.81 63.39 4.21 63.34L5.18 63.24C5.74 63.19 6.24 63.04 6.6 62.79C6.96 62.55 7.26 62.25 7.46 61.9C7.62 61.5 7.72 61.1 7.67 60.6C7.62 60.3 7.57 60.01 7.46 59.76C7.36 59.51 7.21 59.31 7.01 59.11C6.8 58.96 6.55 58.81 6.3 58.76L6.45 57.17C6.9 57.27 7.36 57.42 7.72 57.72C8.07 58.01 8.38 58.36 8.63 58.86C8.89 59.36 8.94 60.01 8.99 60.6Z" fill="#F58A07" fill-opacity="1.000000" fill-rule="nonzero"/>
	<path id="Vector" d="M3.65 52.49L8.73 53.08L8.53 54.73L0 53.73L0.2 52.19L1.57 52.34L1.57 52.24C1.16 51.99 0.81 51.64 0.6 51.19C0.4 50.74 0.3 50.19 0.4 49.6C0.45 49.05 0.66 48.55 0.96 48.15C1.27 47.75 1.67 47.46 2.18 47.31C2.69 47.11 3.3 47.06 4.01 47.16L9.45 47.8L9.24 49.45L3.96 48.75C3.35 48.7 2.84 48.8 2.43 49.05C2.03 49.35 1.82 49.75 1.77 50.29C1.72 50.69 1.77 50.99 1.93 51.34C2.08 51.64 2.28 51.89 2.59 52.14C2.84 52.29 3.2 52.44 3.65 52.49Z" fill="#F58A07" fill-opacity="1.000000" fill-rule="nonzero"/>
	<path id="Vector" d="M11.33 41.78C11.07 42.53 10.67 43.17 10.11 43.57C9.55 44.02 8.89 44.27 8.18 44.37C7.46 44.47 6.65 44.37 5.84 44.07C5.03 43.77 4.31 43.37 3.81 42.87C3.3 42.38 2.94 41.78 2.79 41.08C2.64 40.38 2.69 39.69 2.94 38.94C3.15 38.34 3.45 37.84 3.86 37.45C4.26 37.05 4.72 36.75 5.23 36.6C5.74 36.45 6.3 36.45 6.85 36.55L6.35 38.04C5.94 37.99 5.53 38.09 5.18 38.29C4.82 38.49 4.52 38.84 4.37 39.34C4.21 39.79 4.21 40.18 4.31 40.58C4.42 40.98 4.67 41.33 5.03 41.68C5.38 42.03 5.84 42.28 6.45 42.48C7.06 42.67 7.57 42.77 8.07 42.72C8.58 42.67 8.99 42.58 9.34 42.33C9.7 42.08 9.95 41.73 10.11 41.28C10.21 40.98 10.26 40.68 10.21 40.43C10.16 40.13 10.11 39.89 9.95 39.69C9.8 39.49 9.6 39.24 9.34 39.09L9.85 37.59C10.36 37.84 10.77 38.14 11.07 38.59C11.38 38.99 11.58 39.49 11.63 40.04C11.63 40.58 11.58 41.18 11.33 41.78Z" fill="#F58A07" fill-opacity="1.000000" fill-rule="nonzero"/>
	<path id="Vector" d="M16.66 37.15C16.51 37.35 16.41 37.55 16.25 37.69C16.1 37.84 16 37.94 15.9 38.04L14.93 37C15.14 36.8 15.34 36.55 15.44 36.35C15.54 36.15 15.59 35.9 15.54 35.7C15.49 35.45 15.34 35.2 15.09 34.86L14.68 34.41L5.58 32.71L6.5 31.22L13.36 32.71L13.41 32.61L8.79 27.44L9.7 25.94L16.25 33.76C16.56 34.11 16.76 34.51 16.92 34.86C17.07 35.2 17.12 35.6 17.07 35.95C17.02 36.3 16.86 36.75 16.66 37.15Z" fill="#F58A07" fill-opacity="1.000000" fill-rule="nonzero"/>
	<path id="Vector" d="M21.59 24.95L20.78 24L21.03 18.52C21.03 17.92 21.08 17.43 21.03 17.03C21.03 16.63 20.98 16.23 20.88 15.93C20.78 15.63 20.62 15.33 20.42 15.08C20.17 14.79 19.86 14.64 19.56 14.54C19.25 14.44 18.9 14.44 18.59 14.54C18.29 14.64 17.93 14.79 17.68 15.04C17.37 15.28 17.17 15.58 17.02 15.93C16.91 16.23 16.86 16.58 16.97 16.93C17.07 17.28 17.22 17.57 17.47 17.87L16.25 18.97C15.8 18.47 15.49 17.92 15.39 17.33C15.29 16.73 15.34 16.13 15.59 15.58C15.85 14.99 16.2 14.49 16.76 14.04C17.32 13.59 17.88 13.29 18.49 13.14C19.1 12.99 19.66 12.99 20.22 13.19C20.78 13.34 21.23 13.64 21.64 14.14C21.95 14.44 22.15 14.79 22.3 15.23C22.45 15.63 22.55 16.13 22.55 16.78C22.55 17.43 22.55 18.17 22.5 19.17L22.35 22.26L22.4 22.31L26.26 18.97L27.23 20.06L21.59 24.95Z" fill="#F58A07" fill-opacity="1.000000" fill-rule="nonzero"/>
	<path id="Vector" d="M33.02 16.93C32.26 17.33 31.45 17.48 30.68 17.38C29.92 17.28 29.16 16.93 28.45 16.28C27.74 15.68 27.08 14.84 26.52 13.74C25.91 12.64 25.55 11.7 25.45 10.75C25.35 9.86 25.45 9.06 25.76 8.36C26.11 7.66 26.62 7.12 27.43 6.72C28.2 6.32 28.96 6.17 29.77 6.27C30.58 6.37 31.29 6.72 32.01 7.32C32.72 7.91 33.38 8.76 33.94 9.81C34.55 10.9 34.9 11.9 35 12.79C35.16 13.69 35.05 14.54 34.7 15.18C34.34 15.93 33.78 16.48 33.02 16.93ZM32.31 15.63C32.97 15.28 33.33 14.69 33.38 13.79C33.43 12.94 33.07 11.9 32.41 10.65C31.96 9.86 31.5 9.21 30.99 8.71C30.48 8.21 30.02 7.91 29.52 7.81C29.01 7.71 28.55 7.76 28.09 8.01C27.43 8.36 27.08 8.96 27.03 9.86C26.98 10.7 27.33 11.75 27.99 12.99C28.45 13.84 28.91 14.49 29.41 14.94C29.92 15.43 30.38 15.68 30.89 15.83C31.35 15.93 31.85 15.88 32.31 15.63Z" fill="#F58A07" fill-opacity="1.000000" fill-rule="nonzero"/>
	<path id="Vector" d="M38.92 13.94L38.56 12.74L41.2 7.91C41.51 7.42 41.71 6.92 41.86 6.57C42.02 6.17 42.17 5.82 42.22 5.52C42.27 5.22 42.27 4.88 42.17 4.58C42.07 4.23 41.91 3.93 41.66 3.73C41.41 3.53 41.1 3.38 40.8 3.33C40.44 3.28 40.08 3.28 39.73 3.38C39.32 3.48 39.02 3.68 38.76 3.88C38.51 4.13 38.36 4.43 38.26 4.73C38.15 5.02 38.2 5.42 38.31 5.82L36.73 6.27C36.53 5.62 36.53 4.97 36.73 4.43C36.88 3.83 37.24 3.33 37.7 2.93C38.15 2.53 38.71 2.24 39.42 2.04C40.14 1.84 40.75 1.84 41.35 1.94C41.96 2.04 42.47 2.34 42.93 2.68C43.34 3.08 43.64 3.53 43.84 4.13C43.95 4.53 44 4.93 43.95 5.37C43.9 5.82 43.74 6.32 43.49 6.87C43.23 7.42 42.88 8.16 42.42 9.01L40.85 11.85L40.85 11.95L45.83 10.6L46.23 12L38.92 13.94Z" fill="#F58A07" fill-opacity="1.000000" fill-rule="nonzero"/>
	<path id="Vector" d="M52.74 11.55C51.87 11.6 51.11 11.4 50.45 10.95C49.79 10.5 49.28 9.91 48.93 9.06C48.57 8.21 48.37 7.17 48.27 5.97C48.21 4.78 48.32 3.73 48.62 2.83C48.93 1.94 49.38 1.29 49.99 0.79C50.6 0.29 51.36 0.04 52.23 -0.01C53.09 -0.06 53.85 0.14 54.51 0.59C55.18 1.04 55.68 1.64 56.04 2.48C56.39 3.33 56.65 4.38 56.7 5.57C56.75 6.82 56.65 7.86 56.34 8.71C56.04 9.56 55.58 10.25 55.02 10.75C54.36 11.25 53.65 11.5 52.74 11.55ZM52.69 10.1C53.45 10.05 54.06 9.66 54.46 8.91C54.87 8.16 55.02 7.07 54.97 5.67C54.92 4.73 54.77 3.98 54.57 3.33C54.36 2.68 54.01 2.24 53.65 1.89C53.24 1.59 52.84 1.44 52.33 1.44C51.57 1.49 50.96 1.89 50.55 2.63C50.15 3.38 49.99 4.48 50.04 5.87C50.09 6.82 50.25 7.61 50.45 8.21C50.65 8.81 51.01 9.31 51.36 9.66C51.72 10 52.18 10.1 52.69 10.1Z" fill="#F58A07" fill-opacity="1.000000" fill-rule="nonzero"/>
	<path id="Vector" d="M70.93 7.37L70.57 8.76L65.64 7.47L66 6.07L70.93 7.37Z" fill="#F58A07" fill-opacity="1.000000" fill-rule="nonzero"/>
	<path id="Vector" d="M76.41 16.38L77.07 15.33L82.51 14.04C83.07 13.89 83.58 13.74 83.99 13.64C84.39 13.54 84.75 13.34 85 13.19C85.26 13.04 85.51 12.79 85.66 12.49C85.86 12.2 85.97 11.85 85.97 11.55C85.97 11.2 85.86 10.9 85.71 10.65C85.51 10.35 85.26 10.1 84.95 9.91C84.59 9.71 84.24 9.56 83.88 9.56C83.53 9.56 83.22 9.61 82.92 9.76C82.61 9.91 82.36 10.15 82.16 10.5L80.78 9.66C81.14 9.06 81.6 8.66 82.16 8.41C82.71 8.16 83.27 8.06 83.93 8.11C84.54 8.16 85.15 8.36 85.76 8.76C86.37 9.16 86.83 9.61 87.14 10.1C87.44 10.65 87.59 11.2 87.59 11.75C87.59 12.3 87.44 12.84 87.08 13.34C86.88 13.69 86.58 13.99 86.22 14.24C85.86 14.49 85.41 14.74 84.8 14.93C84.19 15.13 83.43 15.33 82.46 15.58L79.26 16.38L79.21 16.43L83.58 19.12L82.77 20.36L76.41 16.38Z" fill="#F58A07" fill-opacity="1.000000" fill-rule="nonzero"/>
	<path id="Vector" d="M87.49 24.8C86.88 24.2 86.52 23.5 86.37 22.75C86.27 22.01 86.37 21.21 86.78 20.36C87.19 19.52 87.8 18.67 88.71 17.82C89.57 16.98 90.44 16.33 91.3 15.98C92.16 15.58 92.98 15.48 93.74 15.58C94.5 15.68 95.21 16.08 95.82 16.68C96.43 17.28 96.79 17.97 96.94 18.72C97.04 19.47 96.94 20.26 96.53 21.11C96.13 21.96 95.52 22.8 94.65 23.65C93.79 24.5 92.88 25.14 92.06 25.49C91.2 25.89 90.39 25.99 89.62 25.89C88.81 25.79 88.1 25.39 87.49 24.8ZM88.56 23.75C89.12 24.3 89.78 24.45 90.64 24.25C91.5 24.05 92.42 23.4 93.44 22.46C94.1 21.81 94.6 21.16 94.96 20.56C95.26 19.97 95.42 19.42 95.42 18.92C95.42 18.42 95.21 18.02 94.86 17.62C94.3 17.08 93.64 16.93 92.77 17.13C91.91 17.33 91 17.97 89.98 18.92C89.32 19.57 88.81 20.21 88.46 20.81C88.15 21.41 88 21.96 88 22.46C88 23 88.2 23.4 88.56 23.75Z" fill="#F58A07" fill-opacity="1.000000" fill-rule="nonzero"/>
	<path id="Vector" d="M92.06 29.53L93.13 28.88L98.57 30.02C99.18 30.12 99.69 30.22 100.09 30.27C100.5 30.32 100.9 30.32 101.21 30.27C101.51 30.22 101.82 30.12 102.12 29.93C102.43 29.73 102.68 29.48 102.84 29.18C102.99 28.88 103.04 28.58 102.99 28.23C102.94 27.88 102.84 27.58 102.63 27.24C102.43 26.89 102.18 26.64 101.87 26.49C101.57 26.34 101.26 26.24 100.9 26.29C100.55 26.29 100.19 26.44 99.89 26.64L99.02 25.24C99.63 24.9 100.19 24.7 100.85 24.7C101.51 24.7 102.02 24.85 102.58 25.14C103.14 25.44 103.6 25.89 103.95 26.49C104.36 27.09 104.56 27.68 104.61 28.28C104.66 28.88 104.56 29.43 104.31 29.98C104.06 30.52 103.65 30.92 103.14 31.22C102.78 31.42 102.38 31.57 101.97 31.67C101.57 31.77 101.01 31.77 100.4 31.67C99.79 31.62 98.97 31.47 98.01 31.27L94.76 30.62L94.71 30.67L97.45 34.96L96.18 35.7L92.06 29.53Z" fill="#F58A07" fill-opacity="1.000000" fill-rule="nonzero"/>
	<path id="Vector" d="M109.44 38.19L98.72 42.18L98.11 40.58L107.21 37.2L107.21 37.15L104.56 35.25L106.09 34.66L108.83 36.65L109.44 38.19Z" fill="#F58A07" fill-opacity="1.000000" fill-rule="nonzero"/>
	<path id="Vector" d="M116 51.24L97.25 53.13L97.09 51.69L115.84 49.8L116 51.24Z" fill="#F58A07" fill-opacity="1.000000" fill-rule="nonzero"/>
	<path id="Vector" d="M112.03 64.29L100.65 62.94L100.85 61.3L112.24 62.65L112.03 64.29Z" fill="#F58A07" fill-opacity="1.000000" fill-rule="nonzero"/>
	<path id="Vector" d="M99.13 69.12C99.33 68.37 99.74 67.72 100.24 67.28C100.75 66.83 101.41 66.53 102.12 66.38C102.84 66.23 103.65 66.28 104.51 66.53C105.38 66.78 106.09 67.13 106.65 67.63C107.21 68.12 107.56 68.72 107.76 69.37C107.97 70.02 107.92 70.76 107.71 71.51C107.51 72.26 107.1 72.9 106.6 73.35C106.09 73.8 105.43 74.1 104.72 74.25C104 74.4 103.19 74.35 102.33 74.1C101.46 73.85 100.75 73.5 100.24 73C99.68 72.51 99.33 71.91 99.13 71.26C98.92 70.61 98.92 69.87 99.13 69.12ZM100.5 69.52C100.35 70.02 100.35 70.46 100.55 70.86C100.75 71.26 101.01 71.61 101.41 71.86C101.82 72.16 102.28 72.36 102.78 72.51C103.29 72.66 103.8 72.71 104.31 72.71C104.82 72.66 105.22 72.56 105.58 72.31C105.94 72.06 106.19 71.71 106.34 71.21C106.49 70.71 106.49 70.26 106.29 69.87C106.14 69.47 105.83 69.12 105.43 68.82C105.02 68.52 104.56 68.32 104.06 68.17C103.55 68.02 103.04 67.97 102.53 67.97C102.02 68.02 101.62 68.12 101.26 68.42C100.9 68.67 100.65 69.02 100.5 69.52Z" fill="#F58A07" fill-opacity="1.000000" fill-rule="nonzero"/>
	<path id="Vector" d="M100.96 78.88L96.48 76.49L97.3 75.05L104.87 79.03L104.11 80.42L102.89 79.78L102.84 79.88C103.14 80.28 103.29 80.67 103.34 81.17C103.39 81.67 103.24 82.17 102.94 82.77C102.68 83.26 102.33 83.66 101.87 83.91C101.46 84.16 100.96 84.31 100.45 84.31C99.89 84.31 99.33 84.11 98.72 83.81L93.89 81.27L94.71 79.83L99.33 82.27C99.89 82.57 100.4 82.67 100.85 82.52C101.31 82.42 101.67 82.12 101.97 81.62C102.18 81.27 102.23 80.97 102.23 80.62C102.23 80.28 102.12 79.98 101.92 79.68C101.67 79.38 101.36 79.13 100.96 78.88Z" fill="#F58A07" fill-opacity="1.000000" fill-rule="nonzero"/>
	<path id="Vector" d="M90.08 85.75C90.54 85.25 91.1 84.91 91.71 84.71C92.32 84.56 92.98 84.56 93.69 84.76C94.4 84.96 95.11 85.35 95.77 85.95C96.43 86.55 96.99 87.2 97.25 87.84C97.55 88.49 97.65 89.14 97.55 89.79C97.45 90.43 97.2 90.98 96.74 91.48C96.38 91.88 96.03 92.13 95.67 92.28C95.32 92.43 95.01 92.48 94.71 92.43C94.4 92.43 94.15 92.38 93.94 92.33L93.89 92.38L97.09 95.12L95.98 96.36L87.34 88.99L88.41 87.79L89.42 88.64L89.52 88.54C89.47 88.34 89.37 88.09 89.32 87.79C89.27 87.5 89.27 87.2 89.37 86.85C89.47 86.5 89.73 86.15 90.08 85.75ZM90.89 86.95C90.59 87.3 90.39 87.7 90.39 88.09C90.39 88.49 90.49 88.94 90.69 89.34C90.95 89.74 91.25 90.19 91.71 90.53C92.17 90.93 92.62 91.18 93.08 91.33C93.54 91.48 93.94 91.53 94.35 91.43C94.76 91.33 95.11 91.13 95.42 90.78C95.72 90.43 95.92 90.04 95.92 89.59C95.92 89.19 95.82 88.74 95.62 88.34C95.37 87.94 95.06 87.55 94.65 87.2C94.2 86.85 93.79 86.55 93.33 86.4C92.88 86.25 92.42 86.2 92.01 86.25C91.61 86.35 91.25 86.6 90.89 86.95Z" fill="#F58A07" fill-opacity="1.000000" fill-rule="nonzero"/>
	<path id="Vector" d="M82.31 92.92C82.97 92.48 83.63 92.18 84.34 92.13C85.05 92.08 85.71 92.18 86.37 92.53C87.03 92.88 87.64 93.37 88.15 94.07C88.66 94.77 89.02 95.46 89.17 96.21C89.32 96.91 89.22 97.61 88.96 98.25C88.71 98.9 88.25 99.45 87.59 99.95C86.93 100.4 86.27 100.69 85.56 100.74C84.85 100.79 84.19 100.64 83.53 100.35C82.87 100 82.26 99.5 81.75 98.8C81.24 98.1 80.89 97.41 80.78 96.66C80.68 95.91 80.73 95.27 80.99 94.62C81.19 93.92 81.65 93.37 82.31 92.92ZM83.12 94.02C82.71 94.32 82.46 94.67 82.31 95.12C82.16 95.56 82.21 95.96 82.36 96.41C82.51 96.86 82.71 97.31 83.07 97.76C83.38 98.2 83.78 98.55 84.19 98.8C84.59 99.05 85 99.2 85.46 99.25C85.92 99.3 86.32 99.15 86.73 98.8C87.14 98.5 87.44 98.15 87.54 97.71C87.64 97.26 87.64 96.86 87.49 96.36C87.34 95.91 87.14 95.46 86.78 95.02C86.47 94.57 86.07 94.22 85.66 93.97C85.26 93.72 84.85 93.57 84.39 93.57C83.98 93.57 83.58 93.72 83.12 94.02Z" fill="#F58A07" fill-opacity="1.000000" fill-rule="nonzero"/>
	<path id="Vector" d="M77.68 101.74L75.6 97.16L77.12 96.46L80.68 104.13L79.21 104.78L78.65 103.53L78.55 103.58C78.55 104.08 78.45 104.53 78.14 104.93C77.89 105.33 77.43 105.67 76.87 105.92C76.31 106.17 75.8 106.27 75.3 106.22C74.79 106.17 74.33 105.97 73.92 105.67C73.52 105.38 73.16 104.88 72.86 104.23L70.62 99.35L72.15 98.65L74.33 103.33C74.58 103.88 74.94 104.28 75.4 104.43C75.85 104.63 76.31 104.58 76.82 104.38C77.18 104.23 77.43 104.03 77.63 103.73C77.84 103.48 77.94 103.13 77.99 102.79C77.99 102.54 77.89 102.19 77.68 101.74Z" fill="#F58A07" fill-opacity="1.000000" fill-rule="nonzero"/>
</svg>
